<?xml version="1.0" encoding="UTF-8"?>
<svg width="202px" height="111px" viewBox="0 0 202 111" version="1.1" xmlns="http://www.w3.org/2000/svg" xmlns:xlink="http://www.w3.org/1999/xlink">
    <title>CNN Logo</title>
    <defs>
        <rect id="path-1" x="0" y="0" width="201.243902" height="111"></rect>
        <polygon id="path-3" points="0 0 104 0 104 48 0 48"></polygon>
        <polygon id="path-5" points="0 0 88 0 88 40 0 40"></polygon>
    </defs>
    <g id="Page-1" stroke="none" stroke-width="1" fill="none" fill-rule="evenodd">
        <g id="CNN-Logo">
            <mask id="mask-2" fill="white">
                <use xlink:href="#path-1"></use>
            </mask>
            <g id="Mask"></g>
            <g mask="url(#mask-2)">
                <g transform="translate(49.000000, 32.000000)">
                    <g id="Fill-1-Clipped">
                        <mask id="mask-4" fill="white">
                            <use xlink:href="#path-3"></use>
                        </mask>
                        <g id="path-2"></g>
                        <path d="M95.8871973,48 L94.5142972,48 C94.1947747,47.9501684 93.872714,47.9127844 93.5561465,47.8484238 C91.0527449,47.3395757 89.1013169,46.0118582 87.7322037,43.8575279 C83.9392678,37.8891058 80.1574859,31.9136066 76.3693775,25.9421039 C76.340576,25.8967684 76.328839,25.8236239 76.2382725,25.818545 C76.2382725,25.8991414 76.2382309,25.9749503 76.2382309,26.050676 C76.2382309,30.3902263 76.2386885,34.7297766 76.2375647,39.0694102 C76.2374399,39.4574053 76.2184612,39.8447344 76.1714298,40.2306063 C75.9135897,42.3469281 75.0117524,44.1386162 73.4646276,45.6053375 C72.221084,46.7841016 70.7559938,47.5311171 69.072395,47.8477993 C68.7621123,47.9061651 68.4490833,47.9496273 68.1372608,48 L66.7643607,48 C66.7201594,47.9564962 66.6620149,47.963282 66.6078667,47.9581198 C64.5852254,47.764372 62.845938,46.9509978 61.3662388,45.5667878 C60.5990028,44.8490801 60.0461135,43.9714702 59.4898944,43.092986 C56.0814088,37.7101785 52.6676372,32.330743 49.2553641,26.95035 C49.0134646,26.5689325 48.7697753,26.188639 48.5269602,25.807846 C48.4801369,25.8937294 48.4801785,25.9671238 48.4801369,26.0404765 C48.4781807,27.911637 48.4760997,29.7827558 48.4742268,31.653958 C48.4713549,34.5022666 48.4664437,37.3506169 48.4664021,40.1989672 C48.4663605,42.7654382 47.457766,44.8445424 45.4312125,46.4126754 C44.1334374,47.4168833 42.6461633,47.944923 41.0022288,47.9533739 C37.2105414,47.9729819 33.4187706,47.9684442 29.6270832,47.9751467 C29.5388473,47.9753132 29.4466991,47.9520418 29.3623339,48 L23.6209663,48 C23.2107944,47.9252319 22.7937965,47.9503349 22.380503,47.9231503 C20.8977655,47.8257353 19.4370454,47.5953528 18.0009231,47.2232605 C15.2012234,46.4977679 12.6136228,45.3083048 10.243865,43.6449216 C7.72452239,41.8765464 5.61668359,39.7107678 3.9298382,37.1382187 C1.57656216,33.5493473 0.297349918,29.6030375 0.0403837117,25.3245173 C-0.081065493,23.3024051 0.074304583,21.2959875 0.467536964,19.3101353 C1.01455784,16.5476685 2.01903183,13.9581759 3.48807609,11.5562281 C5.4088298,8.41550768 7.91489543,5.8394617 11.0118085,3.84041271 C13.2462575,2.39816998 15.6548891,1.36244787 18.2340406,0.720757259 C19.7632685,0.34025563 21.316886,0.0946364145 22.8903566,0.0530892998 C26.168944,-0.03337699 29.4489466,0.0149142455 32.7283249,0.00804523351 C32.9080014,0.00771219054 32.9431293,0.0654951513 32.9426299,0.232516218 C32.9368862,2.0764088 32.9350965,3.92038466 32.9444196,5.76427725 C32.9454601,5.9745939 32.8792831,6.00968831 32.6878279,6.00948016 C30.1501722,6.00681582 27.6125164,6.00873081 25.0749023,6.01826417 C24.3128689,6.02113666 23.5509187,6.0098132 22.7886355,6.05981128 C21.1279696,6.16867471 19.5142102,6.49709676 17.948814,7.05735834 C15.5764341,7.90640987 13.4732568,9.19703474 11.6406557,10.9276094 C9.5695264,12.8834878 8.04325366,15.2016336 7.07099413,17.8750946 C6.19566916,20.2818299 5.86840558,22.7696196 6.05353446,25.3265572 C6.15950076,26.7895735 6.4392335,28.2155804 6.89448071,29.6083246 C7.69759374,32.0650579 8.97726382,34.247114 10.7236684,36.1482068 C12.8052445,38.414273 15.3068152,40.0494725 18.2236355,41.041108 C19.8516708,41.5945839 21.5264046,41.923339 23.2444239,41.9634706 C25.0115972,42.004768 26.780144,41.9910716 28.5481082,41.9939441 C32.5973029,42.0004801 36.6464976,42.0023118 40.6956508,42.0068495 C40.869875,42.0070576 41.0423096,41.9926119 41.2107901,41.9508151 C41.9408589,41.7697645 42.4813037,41.0770767 42.4799718,40.2192828 C42.4684845,32.6009657 42.4741866,24.9826487 42.4746444,17.3643316 C42.4748525,14.5637314 42.4748941,11.7632143 42.4742282,8.9626141 C42.4741866,8.78148033 42.4823026,8.60142899 42.5481466,8.43099423 C42.7007696,8.0358803 42.9866622,7.79213447 43.4075724,7.74113728 C43.8718513,7.68489464 44.2249197,7.87647761 44.4758925,8.27179965 C47.3545467,12.8063466 50.2347824,17.3398113 53.1143522,21.8736922 C55.3297389,25.3617765 57.544959,28.849944 59.7599295,32.338278 C61.5296833,35.1253901 63.2967318,37.9142089 65.069524,40.6993643 C65.7141037,41.7119816 66.9113647,42.2085071 68.0332094,41.9454447 C69.3663204,41.6328838 70.233113,40.5574047 70.2349856,39.1695313 C70.2403969,35.1767203 70.2340288,31.1838678 70.2330298,27.1910152 C70.2314899,21.090833 70.2304493,14.9906508 70.2298669,8.89046869 C70.2298669,8.7164953 70.2458907,8.54289666 70.3185184,8.38224502 C70.4850432,8.01398275 70.7645263,7.7839333 71.1706606,7.73918065 C71.6481753,7.68668475 71.9958746,7.89858333 72.2481793,8.2965281 C73.5896974,10.4126417 74.9332968,12.5275064 76.2764802,14.6426209 C79.497132,19.7142414 82.7181576,24.7856121 85.9386847,29.8573575 C88.2316104,33.4683346 90.5228298,37.0803525 92.817088,40.6904971 C93.704691,42.0871129 95.56035,42.4394724 96.8631196,41.4559964 C97.6639021,40.8514817 98.0001971,40.0269089 97.9999891,39.0355647 C97.9969504,26.1142039 97.9979078,13.1928014 97.9984493,0.271482249 C97.9984909,-0.042910346 97.9709374,0.00238350247 98.2592026,0.00213372022 C100.172797,-1.99210421e-13 102.086393,0.000593396324 104.000029,-1.99210421e-13 L104.000029,39.6395382 C103.962279,39.7092274 103.961822,39.7859522 103.958325,39.8619693 C103.934685,40.3747723 103.844118,40.8773342 103.717133,41.3732352 C103.268712,43.125083 102.360881,44.5964254 101.009956,45.7972536 C99.8202706,46.8547067 98.4430831,47.5326574 96.8822647,47.837142 C96.5525457,47.9015026 96.2190392,47.9462552 95.8871973,48" id="Fill-1" fill="#000000" fill-rule="nonzero" mask="url(#mask-4)"></path>
                    </g>
                    <g id="Fill-4-Clipped" transform="translate(8.000000, 0.000000)">
                        <mask id="mask-6" fill="white">
                            <use xlink:href="#path-5"></use>
                        </mask>
                        <g id="path-4"></g>
                        <path d="M54.422095,21.8877485 C54.422095,21.4557666 54.4215158,21.023826 54.4221777,20.5918441 C54.4268933,17.3796963 54.4304921,14.1675899 54.4375242,10.9554421 C54.4395097,10.061366 54.4223018,9.16596795 54.4651975,8.27358536 C54.5603788,6.29269759 55.2647453,4.54486029 56.5653496,3.04031744 C57.682913,1.74746968 59.0591743,0.851699965 60.6980219,0.361889149 C64.2651906,-0.704269305 68.1731671,0.638806985 70.3028542,3.6856467 C71.1965078,4.96407853 71.9976683,6.30422207 72.8378782,7.61825995 C75.8509602,12.3304895 78.8596572,17.0455279 81.8702986,21.7593683 C81.8987579,21.8039379 81.9310229,21.8460291 82.001675,21.885518 L82.001675,21.6524675 L82.001675,0.315584719 C82.001675,0.00582832736 82.001675,0.005787021 82.3217999,0.005787021 C84.141124,0.005787021 85.9604887,0.00801756441 87.7797714,0.00206944862 C87.9458528,0.00149115959 88,0.0351971492 88,0.213021028 C87.9935057,13.088709 87.9919753,25.964397 87.989452,38.8401264 C87.9893693,39.384792 87.6996469,39.7879421 87.2150123,39.9273924 C86.7463866,40.0621751 86.295092,39.8746855 86.000365,39.4116412 C83.986625,36.2477392 81.9749115,33.0825155 79.961833,29.9180766 C76.8757415,25.0669751 73.7891952,20.2161215 70.7027723,15.3652265 C68.9844622,12.6645753 67.272357,9.95995881 65.5453193,7.26488408 C64.3951599,5.46987491 61.8679536,5.51477492 60.7755816,7.33911161 C60.541951,7.72925017 60.4105752,8.15606876 60.409996,8.61151269 C60.406025,11.7617835 60.4067282,14.9120957 60.4068109,18.0624078 C60.4070177,24.9958455 60.4080933,31.9292833 60.4076796,38.862721 C60.4076382,39.3871878 60.1105534,39.7882313 59.629559,39.9281772 C59.1725563,40.0611011 58.7052951,39.8644002 58.4269074,39.4269246 C55.3553764,34.5994916 52.2823977,29.7729674 49.2113218,24.9452039 C46.3981992,20.5230277 43.5871034,16.0995709 40.7747255,11.6769403 C39.8385071,10.2046577 38.9103135,8.72721186 37.9610238,7.26331445 C37.3374435,6.30178499 36.4255478,5.83766673 35.2876328,5.97558867 C34.0251258,6.12858742 33.2275635,6.8754477 32.8910577,8.10278359 C32.8213573,8.35706556 32.8232187,8.61878263 32.8233015,8.88000403 C32.825742,18.9224889 32.8270657,28.9649323 32.8324018,39.0074172 C32.8326087,39.4050322 32.7151315,39.7201171 32.3476431,39.9123982 C32.1889662,39.9954653 32.0180453,39.9977372 31.845056,39.9976545 C27.8136045,39.9962914 23.7821115,39.9959196 19.7506185,39.994887 C18.4550608,39.9945566 17.1592134,40.010129 15.8639451,39.9884845 C13.076593,39.9419323 10.4738952,39.2140316 8.06759928,37.8079218 C5.21302874,36.139847 3.0696086,33.8078139 1.6159944,30.8466436 C0.892310366,29.3724196 0.420416262,27.8148807 0.179505385,26.1917886 C-0.0211157947,24.8397901 -0.0597095186,23.4789934 0.0948722029,22.1203859 C0.51170924,18.4560162 1.98265546,15.2744351 4.53741107,12.6045985 C6.43843118,10.6179278 8.7105798,9.21450297 11.3325539,8.3815189 C12.5628787,7.99071943 13.8241034,7.75316656 15.1151524,7.68108699 C16.5817967,7.59930038 18.0497646,7.64684398 19.5170707,7.63705436 C21.2879145,7.62519944 23.0589652,7.63841751 24.8298505,7.63176715 C25.0236464,7.63102366 25.0626951,7.69294191 25.0620747,7.87448333 C25.0554148,9.72476044 25.055208,11.5750788 25.0623228,13.4253559 C25.0630674,13.6071038 25.0171521,13.6546888 24.8347315,13.6539866 C21.9818156,13.643123 19.1288583,13.6376706 16.2759011,13.6359357 C15.1824536,13.6352748 14.1033599,13.7640268 13.0668309,14.1213268 C9.53883504,15.3374686 7.20902331,17.7301395 6.28976468,21.3411415 C5.42390849,24.7426376 6.20637245,27.8359056 8.47740423,30.5200342 C9.95099779,32.2616755 11.8419662,33.3454718 14.0695231,33.8361914 C14.7355441,33.9828289 15.414471,34.0535041 16.0980308,34.0532563 C19.3644745,34.0518931 22.631001,34.0488778 25.897486,34.0451602 C26.5101459,34.044458 26.8431357,33.7170638 26.8567035,33.1095712 C26.8583581,33.0339393 26.8571171,32.9582247 26.8571171,32.8825927 C26.8571171,24.9036085 26.8569103,16.9246655 26.8574067,8.94568118 C26.8574894,8.05540516 26.9493202,7.17772768 27.1995795,6.31851407 C27.6630765,4.72764093 28.5117662,3.38051661 29.7370859,2.26553405 C31.0299963,1.08912892 32.5436314,0.353917021 34.2692217,0.107359359 C36.8964491,-0.267950226 39.2418555,0.40261722 41.286082,2.10716546 C42.2103872,2.87794213 42.8621371,3.85954647 43.4994092,4.85953214 C46.7084381,9.8950252 49.9241268,14.9263051 53.1375816,19.9589894 C53.5509854,20.6063839 53.9652578,21.2533241 54.3791165,21.9004708 C54.3934702,21.8962163 54.4077826,21.8920031 54.422095,21.8877485" id="Fill-4" fill="#000000" fill-rule="nonzero" mask="url(#mask-6)"></path>
                    </g>
                </g>
            </g>
        </g>
    </g>
</svg>