<?xml version="1.0" encoding="UTF-8"?>
<svg width="202px" height="111px" viewBox="0 0 202 111" version="1.1" xmlns="http://www.w3.org/2000/svg" xmlns:xlink="http://www.w3.org/1999/xlink">
    <title>Conan </title>
    <defs>
        <rect id="path-1" x="0" y="0" width="201.243902" height="111"></rect>
    </defs>
    <g id="Page-1" stroke="none" stroke-width="1" fill="none" fill-rule="evenodd">
        <g id="Conan-">
            <mask id="mask-2" fill="white">
                <use xlink:href="#path-1"></use>
            </mask>
            <g id="Mask"></g>
            <g mask="url(#mask-2)" fill="#000000" fill-rule="nonzero" id="Conan">
                <g transform="translate(31.000000, 41.000000)">
                    <path d="M13.0635249,33.124941 C15.5469622,33.7936853 18.0787781,34.0791249 20.6589726,33.9812599 C23.2391671,33.8833949 25.7467937,33.4022252 28.1818523,32.5377509 C30.6169109,31.6732765 32.7697607,30.4091867 34.6404017,28.7454814 C34.8661688,28.5171297 35.1483775,28.2561563 35.4870281,27.9625613 C35.8256786,27.6689662 36.1078874,27.3427495 36.3336544,26.9839111 C36.5594214,26.6250727 36.6884312,26.241768 36.7206836,25.8339971 C36.752936,25.4262262 36.6078001,25.0102999 36.2852758,24.5862181 C35.5434698,25.4670033 34.7290959,26.3151668 33.8421541,27.1307086 C32.9552122,27.9462504 31.9553868,28.639461 30.8426779,29.2103402 C29.729969,29.7812195 28.5043766,30.2053013 27.1659007,30.4825855 C25.8274248,30.7598697 24.3357498,30.8006468 22.6908758,30.6049168 C21.3040212,30.4744301 19.9574822,30.0748146 18.6512587,29.4060703 C17.3450352,28.737326 16.1678215,27.8891625 15.1196175,26.8615798 C14.0714134,25.8339971 13.1925347,24.6433061 12.4829812,23.2895066 C11.7734277,21.9357072 11.3380198,20.4921982 11.1767577,18.9589796 C10.9509907,16.9038142 11.0719373,15.0036018 11.5395975,13.2583423 C12.0072578,11.5130828 12.7329375,9.97986416 13.7166367,8.65868641 C14.7003358,7.33750867 15.8856127,6.24468263 17.2724673,5.3802083 C18.6593218,4.51573397 20.1590599,3.92854386 21.7716815,3.61863797 C23.3843031,3.30873208 25.0453033,3.29242125 26.7546822,3.56970546 C28.4640611,3.84698968 30.1411875,4.45864605 31.7860615,5.40467456 C31.2055178,6.31808139 30.6007847,7.25595449 29.9718623,8.21829383 C29.3429398,9.18063318 28.7301436,10.1511279 28.1334736,11.1297781 C27.5368037,12.1084283 26.964323,13.0789231 26.4160317,14.0412624 C25.8677403,15.0036018 25.3839538,15.9414749 24.9646722,16.8548817 C27.0933327,15.3869064 29.2945612,14.0412624 31.5683576,12.8179497 C33.8421541,11.594637 36.0433825,10.248993 38.172043,8.78101769 C37.1399652,7.05206903 35.8095524,5.57593834 34.1808046,4.35262561 C32.5520568,3.12931288 30.7539837,2.15881812 28.7865854,1.44114132 C26.8191871,0.723464517 24.7389052,0.274916516 22.5457399,0.0954973162 C20.3525745,-0.0839218839 18.1997247,-0.0105231202 16.0871904,0.315693607 C13.9746561,0.641910335 11.950816,1.23725586 10.0156701,2.10173019 C8.08052424,2.96620452 6.37114536,4.08349681 4.8875335,5.45360707 C3.40392164,6.82371732 2.22670788,8.46295638 1.35589223,10.3713242 C0.485076573,12.2796921 0.033542529,14.4408779 0.00129009727,16.8548817 C-0.0309623344,19.7908322 0.541518328,22.3516336 1.71873209,24.5372856 C2.89594584,26.7229377 4.46018878,28.5334405 6.4114609,29.9687941 C8.36273301,31.4041477 10.5800877,32.4561967 13.0635249,33.124941 Z M51.8898857,33.2272727 C54.0421766,33.1308762 56.001725,32.6649595 57.7685309,31.8295226 C58.507377,31.4760685 59.2381922,31.0101518 59.9609764,30.4317725 C60.6837607,29.8533931 61.3422974,29.1384519 61.9365867,28.286949 C62.530876,27.435446 63.0207631,26.4232821 63.406248,25.2504573 C63.7917329,24.0776325 64.032661,22.7200476 64.1290323,21.1777026 C64.0005373,19.0569782 63.5026192,17.1451131 62.6352781,15.4421072 C62.2497932,14.7351991 61.7679371,14.028291 61.1897097,13.3213828 C60.6114823,12.6144747 59.888698,11.971831 59.0213569,11.3934516 C58.1540158,10.8150723 57.1421179,10.3330894 55.9856631,9.9475032 C54.8292083,9.56191696 53.480011,9.33699165 51.9380713,9.27272727 C49.7857804,9.30485946 47.8422939,9.73864399 46.1076117,10.5740808 C45.3687656,10.9275349 44.6379504,11.3934516 43.9151662,11.971831 C43.1923819,12.5502104 42.5338452,13.2651515 41.9395559,14.1166545 C41.3452666,14.9681574 40.8473486,15.9803213 40.4458018,17.1531461 C40.044255,18.325971 39.795296,19.6835559 39.6989247,21.2259009 C39.7631722,23.4108896 40.2289665,25.3870191 41.0963076,27.1542894 C41.4817925,27.8933297 41.9636487,28.6243369 42.5418761,29.3473111 C43.1201035,30.0702853 43.8348568,30.7129291 44.686136,31.2752424 C45.5374153,31.8375556 46.5573441,32.2954393 47.7459227,32.6488934 C48.9345012,33.0023474 50.3158222,33.1951405 51.8898857,33.2272727 Z M54.3928215,32.3927307 C54.0398471,32.488887 53.6868727,32.4728609 53.3338983,32.3446525 C53.045101,32.2484962 52.7482816,32.0641965 52.4434401,31.7917535 C52.1385986,31.5193106 51.8578235,31.062568 51.6011148,30.4215257 L51.6011148,30.4215257 L47.3654219,14.3634169 C47.3012448,13.9467394 47.3333333,13.5621141 47.4616877,13.2095408 C47.5579534,12.8890197 47.7264185,12.5925376 47.9670828,12.3200947 C48.2077472,12.0476517 48.6008323,11.847326 49.1463382,11.7191175 C49.627667,11.5909091 50.0769071,11.558857 50.4940587,11.6229612 C50.8470331,11.6870654 51.1919854,11.847326 51.5289155,12.1037429 C51.8658456,12.3601598 52.1145321,12.7928633 52.274975,13.4018535 L52.274975,13.4018535 L56.4625351,29.5561186 C56.5267122,30.0689524 56.4946237,30.517682 56.3662693,30.9023074 C56.2700036,31.2548806 56.0774721,31.5754018 55.7886748,31.8638708 C55.4998776,32.1523398 55.0345931,32.3286264 54.3928215,32.3927307 Z M75.6377639,33.2272727 L75.6377639,15.5999438 C75.6377639,15.2049336 75.7027771,14.842841 75.8328035,14.5136658 C75.96283,14.2503257 76.149743,14.0116737 76.3935425,13.7977099 C76.637342,13.583746 77.0192947,13.4603054 77.5394004,13.4273878 C77.9619862,13.4273878 78.3358122,13.5096816 78.6608783,13.6742692 C78.9209311,13.8388568 79.1647307,14.1186556 79.3922769,14.5136658 C79.6198231,14.908676 79.717343,15.5011912 79.6848364,16.2912116 L79.6848364,16.2912116 L79.6848364,33.2272727 L88.3153402,33.2272727 L88.5591398,14.4642895 C88.4941266,13.5096816 88.3153402,12.6538262 88.0227808,11.8967234 C87.7627279,11.2383731 87.3807753,10.6376285 86.8769229,10.0944895 C86.3730705,9.55135052 85.6497986,9.27978103 84.707107,9.27978103 C84.3170277,9.24686351 83.7156555,9.3291573 82.9029903,9.52666238 C82.2203516,9.69124996 81.30204,10.0121957 80.1480555,10.4894997 C78.994071,10.9668036 77.5231471,11.6827596 75.7352837,12.6373675 C75.5077375,12.0119347 75.1989247,11.452337 74.8088455,10.9585743 C74.4512728,10.5306466 73.9961803,10.1603245 73.443568,9.84760815 C72.8909557,9.53489176 72.208317,9.39499233 71.3956518,9.42790984 C70.8430395,9.42790984 70.1278942,9.57603866 69.2502158,9.87229628 C68.5025639,10.1356364 67.5192391,10.5306466 66.3002413,11.0573268 C65.0812436,11.584007 63.5940664,12.3575686 61.8387097,13.3780116 L61.8387097,13.3780116 L67.1535398,13.3780116 L67.0560199,33.2272727 L75.6377639,33.2272727 Z M98.4758347,33.2223489 C99.5366157,33.2551746 100.613469,33.1238718 101.706395,32.8284406 C102.638596,32.5658351 103.659196,32.1226883 104.768195,31.4990003 C105.877193,30.8753122 106.94601,29.9233673 107.974646,28.6431655 L107.974646,28.6431655 L109.035427,33.2223489 L117.569892,33.2223489 L112.362422,13.9700832 C112.008829,13.0837896 111.542728,12.2959731 110.96412,11.6066337 C110.449802,11.0157713 109.766723,10.4741474 108.914884,9.98176212 C108.063045,9.48937681 106.978155,9.259597 105.660215,9.29242269 C105.081607,9.22677131 104.261913,9.32524837 103.201132,9.58785387 C102.26893,9.81763369 101.01528,10.2115419 99.4401811,10.7695786 C97.8650821,11.3276153 95.8238823,12.1810832 93.3165818,13.3299822 L93.3165818,13.3299822 L103.77974,13.3299822 L105.515563,20.1248996 C105.065535,19.7309913 104.519072,19.3699087 103.876174,19.0416519 C103.329711,18.7790464 102.638596,18.5246473 101.80283,18.2784546 C100.967063,18.032262 99.9705716,17.9091657 98.813356,17.9091657 C97.1739672,18.1389455 95.7113752,18.5820922 94.4255801,19.238606 C93.8791171,19.5340372 93.3487267,19.8869133 92.8344086,20.2972344 C92.3200905,20.7075555 91.8539898,21.1917344 91.4361064,21.7497711 C91.018223,22.3078078 90.688738,22.9561151 90.4476514,23.6946931 C90.2065648,24.433271 90.0860215,25.2621197 90.0860215,26.1812389 C90.2467459,27.4942664 90.6324844,28.6759912 91.2432371,29.7264132 C91.5003962,30.1859728 91.8298812,30.6209131 92.2316921,31.0312342 C92.6335031,31.4415553 93.1237125,31.8108443 93.7023203,32.1391012 C94.2809281,32.4673581 94.9640068,32.7299636 95.7515563,32.9269177 C96.5391058,33.1238718 97.4471986,33.2223489 98.4758347,33.2223489 Z M102.658802,30.1363636 C101.507097,30.1363636 100.523349,29.7235065 99.7075576,28.8977922 C98.8917665,28.0720779 98.483871,27.0763636 98.483871,25.9106494 C98.483871,24.7125541 98.8917665,23.7006494 99.7075576,22.8749351 C100.523349,22.0492208 101.507097,21.6363636 102.658802,21.6363636 C103.842499,21.6363636 104.842243,22.0492208 105.658034,22.8749351 C106.473825,23.7006494 106.88172,24.7125541 106.88172,25.9106494 C106.88172,27.0763636 106.473825,28.0720779 105.658034,28.8977922 C104.842243,29.7235065 103.842499,30.1363636 102.658802,30.1363636 Z M129.078624,33.2272727 L129.078624,15.5999438 C129.078624,15.2049336 129.143637,14.842841 129.273664,14.5136658 C129.40369,14.2503257 129.590603,14.0116737 129.834403,13.7977099 C130.078202,13.583746 130.460155,13.4603054 130.980261,13.4273878 C131.402846,13.4273878 131.776672,13.5096816 132.101738,13.6742692 C132.361791,13.8388568 132.605591,14.1186556 132.833137,14.5136658 C133.060683,14.908676 133.158203,15.5011912 133.125697,16.2912116 L133.125697,16.2912116 L133.125697,33.2272727 L141.7562,33.2272727 L142,14.4642895 C141.934987,13.5096816 141.7562,12.6538262 141.463641,11.8967234 C141.203588,11.2383731 140.821636,10.6376285 140.317783,10.0944895 C139.813931,9.55135052 139.090659,9.27978103 138.147967,9.27978103 C137.757888,9.24686351 137.156516,9.3291573 136.343851,9.52666238 C135.661212,9.69124996 134.7429,10.0121957 133.588916,10.4894997 C132.434931,10.9668036 130.964007,11.6827596 129.176144,12.6373675 C128.948598,12.0119347 128.639785,11.452337 128.249706,10.9585743 C127.892133,10.5306466 127.437041,10.1603245 126.884428,9.84760815 C126.331816,9.53489176 125.649177,9.39499233 124.836512,9.42790984 C124.2839,9.42790984 123.568754,9.57603866 122.691076,9.87229628 C121.943424,10.1356364 120.960099,10.5306466 119.741102,11.0573268 C118.522104,11.584007 117.034927,12.3575686 115.27957,13.3780116 L115.27957,13.3780116 L120.5944,13.3780116 L120.49688,33.2272727 L129.078624,33.2272727 Z"></path>
                </g>
            </g>
        </g>
    </g>
</svg>