<?xml version="1.0" encoding="UTF-8"?>
<svg width="202px" height="111px" viewBox="0 0 202 111" version="1.1" xmlns="http://www.w3.org/2000/svg" xmlns:xlink="http://www.w3.org/1999/xlink">
    <title>HandM Logo</title>
    <defs>
        <rect id="path-1" x="0" y="0" width="201.243902" height="111"></rect>
    </defs>
    <g id="Page-1" stroke="none" stroke-width="1" fill="none" fill-rule="evenodd">
        <g id="HandM-Logo">
            <mask id="mask-2" fill="white">
                <use xlink:href="#path-1"></use>
            </mask>
            <g id="Mask"></g>
            <g mask="url(#mask-2)" fill="#000000" fill-rule="nonzero">
                <g transform="translate(56.000000, 30.000000)">
                    <path d="M89,1.7534617 C88.982266,1.79644311 88.9515541,1.83858243 88.9486512,1.88254626 C88.8726417,3.03304447 88.5198441,4.12803525 88.2678555,5.24186768 C87.5259521,8.52126124 86.8154596,11.8074265 86.1306768,15.0990654 C85.1962143,19.5909206 84.2709866,24.0847055 83.356287,28.5806307 C82.6347763,32.126965 81.9329586,35.6772993 81.226559,39.2266863 C80.5338358,42.7074082 79.8435266,46.1886565 79.1575544,49.6707469 C78.6114627,52.4427844 78.0731371,55.2163657 77.532782,57.9895962 C77.4921714,58.1980824 77.4349463,58.4000774 77.3152132,58.5764591 C77.1352462,58.8416807 76.9021817,58.9798878 76.5606125,58.99694 C75.8126577,59.0343777 75.2642924,58.7271571 74.8328625,58.1376277 C74.2346876,57.320174 73.4944976,56.6450326 72.6877785,56.0402052 C72.426486,55.8442802 72.1623244,55.6521094 71.9041449,55.4521495 C71.73831,55.3237315 71.5777214,55.1879454 71.420526,55.0489663 C70.9264483,54.6120998 70.7320008,54.0668148 70.8329849,53.4123747 C70.9149052,52.8815105 70.9854229,52.3488919 71.0661193,51.8178172 C71.4415135,49.3473162 71.849858,46.8821483 72.2879691,44.4221383 C72.7853695,41.6289434 73.2832248,38.8357485 73.7991647,36.0459219 C74.3363009,33.1414315 74.8854359,30.2390112 75.4474775,27.3392575 C76.0517037,24.2217547 76.6744341,21.1078659 77.2945756,17.9935561 C77.4997619,16.9631251 77.7218787,15.9361677 77.9360192,14.9075262 C77.9478077,14.8509311 77.9638628,14.7937044 77.9272746,14.7239167 C77.8126135,14.8035287 77.7844207,14.9322975 77.7316025,15.0414879 C75.0924062,20.496337 72.6299235,26.0315 70.2620237,31.6091883 C67.3742666,38.4113378 64.6120493,45.2641177 62.0597405,52.2008605 C61.9303884,52.5524659 61.7833019,52.8955453 61.5501673,53.1938889 C61.0404541,53.8462237 60.3763438,53.8986085 59.7748808,53.332903 C59.6037988,53.1719596 59.4568173,52.9897184 59.3418764,52.7851971 C58.9493078,52.0869685 58.4333333,51.4862464 57.8871371,50.9077693 C57.5186689,50.517463 57.154573,50.1228411 56.7942549,49.7248859 C55.9858914,48.8321007 55.6212009,47.76746 55.5053507,46.576647 C55.2611627,44.0676557 55.2919091,41.5591907 55.4146853,39.0471118 C55.4905546,37.494483 55.5974153,35.9442051 55.730685,34.3959272 C55.8708807,32.7665985 56.0325184,31.1390945 56.1875801,29.5110641 C56.3116504,28.2086047 56.4413173,26.9067067 56.5659123,25.6043175 C56.6971883,24.2321404 56.8333964,22.8603845 56.9527095,21.48719 C57.078074,20.0437516 57.1715378,18.5977869 57.2448537,17.1506644 C57.2471623,17.1047357 57.2451685,17.0586315 57.2451685,16.9783528 C57.091366,17.0841397 57.0874834,17.2349079 57.0459284,17.3562032 C55.7481046,21.1440756 54.5298928,24.9580174 53.3331582,28.7788715 C50.7059245,37.1669822 48.1805845,45.5860397 45.7151285,54.023237 C45.5669577,54.5302772 45.385312,55.0206161 45.0890403,55.4619387 C44.8516732,55.8154388 44.5672594,56.1201682 44.1931246,56.3314613 C43.2810486,56.8464312 42.3547361,56.4594582 42.0888962,55.4476232 C41.9456923,54.9026892 41.9882967,54.3574043 42.125764,53.818435 C42.6853571,51.6237868 43.2915073,49.4416648 43.916721,47.2651916 C47.3885213,35.1793466 51.1489678,23.184517 55.220797,11.2882111 C55.9579783,9.13447434 56.7381486,6.99628097 57.5225515,4.85931563 C57.9175688,3.78299105 58.6312792,3.07518379 59.6777443,2.66607098 C60.1445033,2.4836193 60.6217561,2.33386857 61.0973298,2.17825834 C61.6180264,2.00787653 62.125536,1.80746038 62.6197884,1.56851885 C63.3965659,1.19301925 64.1907279,0.85825551 65.0379529,0.673488094 C65.4833049,0.576367659 65.9308953,0.511456965 66.3870558,0.623524402 C66.8670022,0.741416256 67.154214,1.03656694 67.2575069,1.51974812 C67.2919964,1.68093716 67.3064424,1.84226655 67.3078067,2.00657832 C67.3201194,3.48110369 67.2080466,4.94892747 67.059176,6.41397939 C66.9210796,7.77352514 66.7759521,9.13257965 66.6160281,10.4897043 C66.4534459,11.8698812 66.2771522,13.2485492 66.0921837,14.625884 C65.8776574,16.223073 65.6471466,17.8180867 65.4235258,19.4140477 C65.2015845,20.99843 64.9735917,22.5820404 64.7595905,24.1675104 C64.6002614,25.3480079 64.4557983,26.5305755 64.3105658,27.7129325 C64.1268214,29.2086504 63.9756423,30.7080173 63.8439117,32.2091034 C63.7162735,33.6640854 63.6152543,35.1213481 63.5489342,36.5804352 C63.502762,37.5960244 63.4516577,38.6118241 63.4558902,39.6290975 C63.45631,39.7385685 63.4333638,39.8527411 63.4913938,39.9926325 C63.6086083,39.8428116 63.6414185,39.6948854 63.6941318,39.5587483 C65.4221617,35.0948925 67.2220036,30.6604395 69.111636,26.2627926 C71.8176075,19.965157 74.720475,13.7586069 77.7029899,7.58896822 C78.139947,6.68516577 78.5763792,5.78104749 79.0180232,4.87952566 C79.311217,4.28108415 79.6410682,3.70432631 80.0343015,3.16430442 C80.5987219,2.38909529 81.3182038,1.84791553 82.2702959,1.65770965 C83.1475678,1.48248587 83.930676,1.05467176 84.7562492,0.740960127 C85.5407223,0.442827063 86.3291473,0.159465567 87.16462,0.039503586 C87.5006275,-0.00874084905 87.837265,-0.027056191 88.1699147,0.0684853337 C88.6042835,0.193148954 88.8719074,0.466089653 88.9255997,0.926885411 C88.9364782,1.02004103 88.9402558,1.11372295 89,1.19238769 L89,1.7534617 Z" id="Fill-1"></path>
                    <path d="M42.1750907,0 C42.1830889,0.00843501196 42.1895503,0.0208600296 42.1993647,0.0247450352 C42.8269645,0.274820391 43.0186777,0.559020794 42.9985948,1.24680677 C42.9835064,1.76449251 42.8539978,2.26229822 42.6725531,2.7428489 C42.0761081,4.32233114 41.4781613,5.90128838 40.8650562,7.47433063 C39.0298623,12.1829573 37.1871243,16.888609 35.3479488,21.5956607 C35.2936376,21.7347159 35.2460324,21.8764311 35.1876348,22.0382363 C35.3932139,22.0861864 35.5752524,22.0458313 35.7534838,22.0288213 C36.5868024,21.9492661 37.4185492,21.852946 38.2523568,21.7791309 C38.680734,21.7411909 39.1117307,21.7312508 39.5380473,21.826556 C39.720924,21.867471 39.8986665,21.9204612 40.0639401,22.0070513 C40.4924571,22.2316816 40.7384465,22.5840971 40.7247203,23.0738177 C40.7044278,23.7967088 40.4671701,24.4487597 39.8418406,24.8477253 C38.6458072,25.6108314 37.7604827,26.6623029 36.9588427,27.8032345 C36.8986289,27.8889846 36.8361798,27.9734747 36.7806461,28.0622698 C35.8994081,29.4723169 34.6156735,30.3435031 33.0590209,30.8444238 C32.7165635,30.954604 32.3685529,31.0531991 32.0167003,31.1263842 C31.7639351,31.1789543 31.6297113,31.2916194 31.5364917,31.5463148 C30.5040904,34.3675288 29.4452495,37.1789778 28.4145596,40.0007518 C26.2532193,45.9178952 24.1771353,51.8649986 22.1990558,57.8462971 C22.1295166,58.0565425 22.0459018,58.2589127 21.9404229,58.455508 C21.5605939,59.163559 20.4569419,59.126669 20.0323019,58.6565483 C20.0089359,58.6306483 19.9823216,58.6068833 19.9626578,58.5783932 C19.2725741,57.5771818 18.3626611,56.7987807 17.4224665,56.0489396 C16.9836461,55.6989391 16.6075893,55.2859735 16.277042,54.8305529 C15.920649,54.3395372 15.8093023,53.8234265 15.9664031,53.2171206 C16.7351769,50.2505513 17.6618897,47.3323172 18.6149373,44.4219931 C19.785579,40.847368 21.0316275,37.298888 22.3137205,33.762973 C22.3650629,33.6214327 22.4125634,33.4784575 22.4604131,33.3402423 C22.3565408,33.2657272 22.2678966,33.3120323 22.1791126,33.3314923 C18.7398705,34.0839584 15.2960181,34.8152494 11.861037,35.5875955 C11.5824259,35.6502456 11.4603218,35.7796758 11.3645176,36.0338112 C9.12155329,41.9828046 6.93496088,47.9524131 4.81947947,53.9481666 C4.5970656,54.5784825 4.3256145,55.1806583 3.89350011,55.6984491 C3.62159496,56.0242296 3.30739346,56.29674 2.9155846,56.4702352 C1.99652075,56.8772158 1.1560422,56.4255051 0.984062629,55.4352137 C0.874986227,54.8071028 0.99258477,54.204857 1.19243593,53.6145811 C2.08506019,50.9785874 3.00768658,48.3531637 3.945087,45.732885 C5.03546681,42.6849056 6.15127334,39.6462713 7.2791296,36.612082 C7.31947009,36.5034769 7.35663218,36.3936817 7.39445789,36.2868965 C7.31157657,36.1909964 7.19998548,36.1946714 7.10201581,36.1794814 C6.1593065,36.0336362 5.37289464,35.5888905 4.6954544,34.9312046 C4.27671698,34.524644 3.90981093,34.0719884 3.53633864,33.6251777 C3.49149263,33.5715577 3.44371277,33.5200726 3.40263884,33.4637225 C2.97719548,32.8804817 2.44120879,32.4686711 1.72447589,32.2930759 C0.927900336,32.0979856 0.496309848,31.4977348 0.173970398,30.7970337 C0.125666631,30.6921036 0.105199526,30.5725434 0,30.5019133 L0,30.1521228 C0.0351014354,30.1226528 0.0851515418,30.1002177 0.102929283,30.0624877 C0.257061258,29.7350272 0.542133811,29.556807 0.847533762,29.4058867 C1.16075732,29.2511516 1.49001228,29.1349864 1.82506508,29.0368463 C4.76901025,28.174515 7.73020924,27.3760939 10.7112118,26.6529579 C11.0000215,26.5828878 11.1538391,26.4534576 11.2644174,26.1668421 C13.5364058,20.2783638 15.8663029,14.4127405 18.2345845,8.56248218 C18.9336794,6.83540468 19.6366162,5.10993725 20.336654,3.38324481 C20.615335,2.69587883 20.9771766,2.06307793 21.523816,1.5505722 C21.9128307,1.18583669 22.3525591,0.9132563 22.8828178,0.806016143 C23.6683565,0.647185919 24.2725553,1.0568965 24.4074076,1.84747763 C24.4468051,2.07847795 24.4371304,2.31161328 24.4011558,2.54387361 C24.3383923,2.94980419 24.2035748,3.33326473 24.0516782,3.71259527 C22.3720832,7.90707124 20.6868301,12.0992722 19.0172941,16.2977381 C17.8469668,19.2409273 16.6981894,22.1926915 15.541763,25.1413757 C15.4984887,25.2517658 15.4151883,25.359076 15.4569956,25.5101012 C15.6020118,25.4818562 15.7263861,25.4605411 15.8494332,25.4331361 C19.1619959,24.6950201 22.4890531,24.0297041 25.8343072,23.4586783 C26.1325821,23.4077882 26.262894,23.2833281 26.3673949,23.0142827 C28.542706,17.4123847 30.8164757,11.8507018 33.1775275,6.32482398 C33.6350686,5.25396246 34.0903743,4.18198094 34.563423,3.11801443 C34.8398686,2.49620355 35.2776761,2.00109284 35.9582597,1.84520262 C36.8001004,1.65238735 37.6128122,1.38099696 38.4204944,1.08542154 C39.271486,0.7739561 40.1127329,0.435575618 40.9829341,0.177345252 C41.2157213,0.108290154 41.4661814,0.114765163 41.686325,0 L42.1750907,0 Z" id="Fill-3"></path>
                    <path d="M36.1189511,38.7533639 C36.5076918,38.3443457 36.8966197,38.0123243 37.1652846,37.5783429 C37.2614501,37.4230282 37.3258099,37.2553925 37.3471759,37.0766502 C37.3816757,36.7880555 37.2305424,36.5149958 36.9773689,36.3903226 C36.7003971,36.2539355 36.3868676,36.3006121 36.1486988,36.512603 C35.9971539,36.6474544 35.9053663,36.817947 35.8677981,37.0063675 C35.750566,37.594128 35.8962362,38.1478185 36.1189511,38.7533639 M35.191833,43.9340342 C34.8194067,44.366837 34.4592162,44.8157463 34.1544051,45.3036182 C34.0205591,45.5178233 33.9058715,45.7424565 33.8394162,45.9845889 C33.765814,46.252756 33.7005187,46.5359581 33.951971,46.7493061 C34.2165573,46.9738322 34.5136227,46.8764792 34.7913428,46.7567701 C35.1564725,46.5993839 35.4623313,46.3538588 35.7821472,46.1287613 C35.9362365,46.020266 35.9663585,45.9116278 35.9003896,45.7354568 C35.700051,45.2002298 35.5215273,44.6575031 35.332751,44.118312 C35.3102999,44.0540648 35.2982512,43.9804251 35.191833,43.9340342 M37.9023167,44.2449851 C38.1676887,44.0169235 38.3954925,43.8164678 38.6286471,43.621869 C38.951494,43.352452 39.305473,43.1387112 39.7371702,43.0613217 C40.3332843,42.9544334 40.7984337,43.2373499 40.9525978,43.7945759 C41.0457325,44.1312757 40.9884074,44.4553689 40.8945244,44.7784979 C40.7699582,45.2071223 40.5550263,45.5962128 40.2902904,45.9586615 C39.9411384,46.4365695 39.5896665,46.9134062 39.2192607,47.3762434 C39.0962662,47.5299511 39.0765466,47.6560171 39.1475295,47.8289383 C39.315576,48.2382064 39.4690292,48.6529386 39.6267856,49.066028 C39.7426707,49.3694792 39.8288455,49.678966 39.8081531,50.0061662 C39.7544949,50.8518084 38.9559094,51.2466486 38.2004299,50.8019534 C37.880614,50.6137115 37.6709955,50.3375805 37.5206106,50.0166657 C37.4399363,49.8444589 37.3685793,49.6682164 37.2848367,49.474939 C37.1280157,49.5083661 37.0445351,49.6172543 36.9438044,49.6937867 C36.2560151,50.2162286 35.5233608,50.6571739 34.661276,50.8724861 C32.3716381,51.4442473 30.2631432,50.0366292 30.030026,47.7828331 C29.8584248,46.1231544 30.4316013,44.6918231 31.5126591,43.425806 C32.2608045,42.5497008 33.0603631,41.7150581 33.8908666,40.909307 C34.0971922,40.7091727 34.1605043,40.5371087 34.0630291,40.2557279 C33.8013616,39.5005461 33.5604239,38.7378646 33.4324152,37.9475057 C33.1600085,36.2650422 34.2031989,34.6109347 35.8556745,34.1458833 C36.7947291,33.8816803 37.7081147,33.9763906 38.566757,34.4296211 C39.7666934,35.0629867 40.2800004,36.2438646 39.9294638,37.5270951 C39.7896683,38.0389303 39.5443153,38.5041246 39.2437699,38.9454628 C38.645261,39.8243536 37.9800724,40.6566393 37.2722266,41.4562835 C37.0845354,41.6683458 37.0617475,41.8450882 37.1543958,42.0962203 C37.3816383,42.7123367 37.5790583,43.3385597 37.7897618,43.9602831 C37.8162916,44.0386011 37.8504547,44.1145979 37.9023167,44.2449851" id="Fill-5"></path>
                </g>
            </g>
        </g>
    </g>
</svg>