<?xml version="1.0" encoding="UTF-8"?>
<svg width="202px" height="111px" viewBox="0 0 202 111" version="1.1" xmlns="http://www.w3.org/2000/svg" xmlns:xlink="http://www.w3.org/1999/xlink">
    <title>Lacoste Logo</title>
    <defs>
        <rect id="path-1" x="0" y="0" width="201.243902" height="111"></rect>
        <polygon id="path-3" points="0 0 74 0 74 43 0 43"></polygon>
        <polygon id="path-5" points="0 0 14 0 14 22 0 22"></polygon>
    </defs>
    <g id="Page-1" stroke="none" stroke-width="1" fill="none" fill-rule="evenodd">
        <g id="Lacoste-Logo">
            <mask id="mask-2" fill="white">
                <use xlink:href="#path-1"></use>
            </mask>
            <g id="Mask"></g>
            <g mask="url(#mask-2)">
                <g transform="translate(28.000000, 21.000000)">
                    <g id="Group-3" stroke-width="1" fill="none" fill-rule="evenodd" transform="translate(37.000000, 0.000000)">
                        <g id="Fill-1-Clipped">
                            <mask id="mask-4" fill="white">
                                <use xlink:href="#path-3"></use>
                            </mask>
                            <g id="path-2"></g>
                            <path d="M58.3399583,18.9059981 C58.5589011,18.846864 58.8904537,18.7609639 59.2194216,18.6664737 C59.319232,18.6378403 59.4159656,18.572606 59.373137,18.4492335 C59.2852645,18.1962638 59.1673628,17.9566149 58.911991,17.830628 C58.645666,17.6994124 58.4392764,17.830628 58.266362,18.0163715 C58.0725256,18.2246482 57.8790585,18.4502294 57.9322251,18.766068 C57.9563469,18.9081145 58.0930785,18.9303987 58.3399583,18.9059981 M33.1207993,18.2100825 C33.6076671,18.4802322 34.056629,18.7088013 34.4844228,18.9727264 C34.8381281,19.191087 34.9639064,19.0019822 35.0344259,18.7010827 C35.0766391,18.5215639 35.0839003,18.3330816 35.0992842,18.1479605 C35.1426051,17.6291984 34.886618,17.4713413 34.4262104,17.6102755 C33.9979243,17.7396237 33.5819453,17.9055727 33.1207993,18.2100825 M15.52021,9.76833972 C16.0513832,10.055047 16.5009605,10.2788853 16.9307235,10.5364612 C17.2407386,10.7222048 17.38067,10.5933545 17.4483589,10.3039084 C17.4947565,10.1057157 17.5119865,9.89918183 17.5290933,9.69538683 C17.5717989,9.18297383 17.3186424,9.02511677 16.8609424,9.1608141 C16.4327794,9.28754795 16.0218462,9.46096664 15.52021,9.76833972 M22.539056,18.609207 C23.0975509,18.9061226 23.5637428,19.1533656 24.0293193,19.4016046 C24.1205147,19.4504059 24.2371858,19.5194994 24.3053669,19.421648 C24.5705844,19.040824 24.6079978,18.5941433 24.4824657,18.174602 C24.3613642,17.7698754 24.0092588,17.9581088 23.7573331,18.0319331 C23.3667066,18.1462176 22.9883872,18.3054441 22.539056,18.609207 M35.8206016,21.6111056 C36.339837,21.8905922 36.7791994,22.1068365 37.1973938,22.3585613 C37.5048244,22.5436823 37.6531246,22.4303937 37.7226595,22.1318596 C37.7690572,21.9326709 37.7902254,21.7253901 37.8024094,21.5207237 C37.8323156,21.0144109 37.5966351,20.8372574 37.1237975,20.9982268 C36.7046186,21.1407712 36.2821168,21.2802033 35.8206016,21.6111056 M12.8249613,10.708635 C13.2754001,10.9548821 13.6915022,11.1555647 14.0796673,11.4014383 C14.5186605,11.6794311 14.7033896,11.5114901 14.7641865,11.062195 C14.7860931,10.9001052 14.7897853,10.7350275 14.7944619,10.5710703 C14.8083689,10.0933908 14.596195,9.94362578 14.1442794,10.0936398 C13.7029478,10.2400435 13.2662929,10.3881901 12.8249613,10.708635 M32.500769,21.0986926 C33.0319423,21.3890101 33.5090875,21.6493249 33.9858634,21.9103866 C34.1125031,21.9797292 34.2342201,21.9715127 34.2964939,21.8364378 C34.4834383,21.4302173 34.5990017,20.9632442 34.3737823,20.5865286 C34.1641928,20.2362054 33.7750433,20.4905445 33.482258,20.5923797 C33.165597,20.702556 32.8393366,20.8142262 32.500769,21.0986926 M10.5007708,15.9308655 C10.9734854,16.1852046 11.4116172,16.3980875 11.8261194,16.6506838 C12.1955777,16.875767 12.3532312,16.7116853 12.413659,16.3662174 C12.4556261,16.1261949 12.4636257,15.876462 12.4564876,15.6319579 C12.4473803,15.3187336 12.2637588,15.1837833 11.9660508,15.2652017 C11.4628146,15.4030154 10.9647474,15.5607479 10.5007708,15.9308655 M5.0568607,23.246943 C5.54926664,23.5139804 5.9705377,23.7174018 6.36571777,23.9637734 C6.74686776,24.201555 6.92556646,24.0662311 6.99780896,23.6761947 C7.0314073,23.4956799 7.03805308,23.3091895 7.0459296,23.1250644 C7.06562094,22.6598342 6.86944622,22.4768296 6.40854638,22.6258477 C5.96598409,22.76889 5.53326745,22.928988 5.0568607,23.246943 M25.1856918,23.8168717 C25.2494424,23.8900736 25.269626,23.9299113 25.3018705,23.9479629 C25.6238236,24.1269837 25.946515,24.3045107 26.2711755,24.4785518 C26.9070819,24.8194135 27.0115689,24.7606528 27.0877497,24.0265179 C27.1737762,23.1954029 26.9859703,23.0380438 26.2098863,23.3129243 C25.8673805,23.4343049 25.5231517,23.5607897 25.1856918,23.8168717 M5.55308183,14.9657961 C6.05225666,15.2394316 6.47414308,15.4401143 6.86329267,15.692586 C7.2909634,15.9697073 7.44086358,15.7701451 7.5070756,15.3708962 C7.53378194,15.2099268 7.5348896,15.0443512 7.54719665,14.8808919 C7.58362561,14.4004736 7.35262182,14.2473473 6.91522853,14.3632502 C6.46294364,14.4830125 6.03933424,14.6723662 5.55308183,14.9657961 M21.512154,24.4923705 C22.0328661,24.7694919 22.4840434,24.9984344 22.9240212,25.2475448 C23.198715,25.4030365 23.3451692,25.3185058 23.4035047,25.031674 C23.4479333,24.8126909 23.4911311,24.5905954 23.5023305,24.368251 C23.5252217,23.909619 23.3232626,23.7152855 22.864455,23.8633076 C22.4232464,24.0056031 21.9880684,24.1600988 21.512154,24.4923705 M17.8751681,25.6349669 C18.3270838,26.003217 18.847796,26.1908279 19.315957,26.4684472 C19.5479453,26.6060119 19.6381562,26.489611 19.7190136,26.2848201 C19.8120551,26.0485325 19.815378,25.8042772 19.8305157,25.5579057 C19.8614064,25.0561991 19.5991427,24.9399227 19.1797177,25.0554522 C18.7302635,25.1795716 18.3033312,25.3622028 17.8751681,25.6349669 M14.1919077,26.2048956 C14.7120046,26.4904825 15.1871806,26.7525401 15.6635873,27.0124814 C15.7860427,27.0793341 15.913544,27.0782137 15.9776638,26.9417694 C16.1687927,26.5357979 16.2791871,26.0680778 16.0588905,25.6898682 C15.8512702,25.3333204 15.4605207,25.5908964 15.1685969,25.6926071 C14.8510745,25.8031568 14.5201373,25.9097228 14.1919077,26.2048956 M7.47458492,25.2225217 C7.93240799,25.4726281 8.3342339,25.6664636 8.70923039,25.9037471 C9.12902461,26.1695396 9.34538288,26.0723106 9.40224156,25.5831778 C9.4259942,25.3788849 9.46734598,25.1729735 9.45922332,24.969552 C9.44593168,24.6296862 9.24704941,24.483158 8.92189659,24.5701786 C8.43404426,24.7008962 7.95997585,24.8695841 7.47458492,25.2225217 M10.3800384,26.4991969 C10.8537376,26.7613791 11.2048584,26.9589494 11.5590559,27.150793 C12.224007,27.5109512 12.3657844,27.4299063 12.4323657,26.6581745 C12.495624,25.9246619 12.2838193,25.7467616 11.5895774,25.9864105 C11.2263958,26.1118993 10.8793363,26.285318 10.3800384,26.4991969 M7.36049841,16.8648117 C7.76909318,17.0859112 8.08550796,17.2588318 8.40327655,17.4290137 C9.16656117,17.8379731 9.35485936,17.7197048 9.36408963,16.8270903 C9.37012011,16.2562901 9.20299007,16.1066495 8.66824783,16.2589044 C8.24266929,16.3801606 7.83149004,16.550218 7.36049841,16.8648117 M29.6684196,17.9370695 C30.1184892,18.3048217 30.640309,18.4903162 31.1071163,18.7693049 C31.3419352,18.9097329 31.447776,18.7900952 31.5025425,18.5810715 C31.5541091,18.3837502 31.6082602,18.1819471 31.6190905,17.9797706 C31.6515811,17.3657713 31.4753438,17.2076652 30.9090954,17.3687591 C30.4832708,17.4900153 30.0712301,17.6606951 29.6684196,17.9370695 M3.73815798,20.834145 C4.23831737,21.1080296 4.65638859,21.3115755 5.04787654,21.5581961 C5.47271666,21.8258559 5.62655505,21.6444697 5.68218301,21.2285387 C5.70396654,21.0661999 5.74224152,20.9043591 5.74593365,20.7416468 C5.75614852,20.2958375 5.55554325,20.0859424 5.10510442,20.2177804 C4.65958843,20.348249 4.22822557,20.5165635 3.73815798,20.834145 M8.44992037,13.9559092 C8.94552616,14.2246895 9.36950474,14.429107 9.76628476,14.677346 C10.1297126,14.90467 10.3255181,14.8418011 10.3896379,14.410682 C10.4168365,14.2278019 10.4546193,14.0451707 10.4634804,13.8612946 C10.4864946,13.3930766 10.2793665,13.218164 9.81809755,13.3475122 C9.36248974,13.475242 8.93691119,13.6631018 8.44992037,13.9559092 M28.983408,20.9275148 C29.5112583,21.2107362 29.9952954,21.4642039 30.4728097,21.7294984 C30.7006137,21.8559832 30.8187616,21.7664728 30.8753741,21.5473652 C30.9265715,21.3484254 30.9825687,21.1461244 30.995368,20.9425784 C31.0342584,20.3299486 30.8593749,20.1774447 30.2832809,20.3320649 C29.8488412,20.4488393 29.4390157,20.6344583 28.983408,20.9275148 M25.6250542,21.0444137 C25.9482379,21.3673484 26.3596633,21.4995599 26.722845,21.7043508 C27.3453367,22.0551719 27.4872372,21.965786 27.5592336,21.2239325 C27.6335683,20.455811 27.4254557,20.2882434 26.6926927,20.5374783 C26.3300033,20.6608508 25.9743289,20.8031463 25.6250542,21.0444137 M11.882855,13.572471 C12.3116333,13.8119954 12.71309,14.0084453 13.0851328,14.2507086 C13.5781541,14.5719004 13.7772825,14.393004 13.8229417,13.8683907 C13.8354949,13.7253483 13.8775851,13.5820569 13.8713085,13.4406329 C13.8542017,13.0477331 13.7151318,12.8063413 13.2563242,12.9468939 C12.7895169,13.0899363 12.3334168,13.2472954 11.882855,13.572471 M39.1463416,22.1394536 C39.1812937,22.2018246 39.192247,22.2526177 39.2220301,22.2696733 C39.5219534,22.4401041 39.8233536,22.6080451 40.1275844,22.7707574 C40.8641627,23.1647777 41.0331388,23.0614485 41.0728906,22.1979654 C41.0999662,21.6107321 40.9024376,21.4323337 40.3473887,21.5982828 C39.9274714,21.7238962 39.5173998,21.8912147 39.1463416,22.1394536 M11.7848906,21.0309684 C12.2845577,21.3003712 12.7294584,21.5101417 13.1419914,21.771826 C13.5158803,22.008736 13.6592577,21.8487626 13.7268235,21.498066 C13.7655907,21.2971343 13.785159,21.090476 13.7927894,20.8855606 C13.8100193,20.4324063 13.5935379,20.3026846 13.170913,20.4204549 C12.7151822,20.5475622 12.2878807,20.72982 11.7848906,21.0309684 M11.2483023,23.7134181 C11.780337,24.0014948 12.2182226,24.2212249 12.6383861,24.4715802 C12.9481551,24.6562033 13.0920248,24.5355696 13.1589752,24.2357905 C13.2037729,24.0349834 13.240448,23.8286986 13.2470938,23.6237832 C13.2613701,23.1825801 13.0739333,22.9470394 12.6103259,23.0903308 C12.1678867,23.2271486 11.7311087,23.3836363 11.2483023,23.7134181 M28.4592498,23.9030209 C28.9430408,24.1691868 29.3918797,24.3997477 29.8237348,24.6593156 C30.1700558,24.8674678 30.3039567,24.6952941 30.3712764,24.3863025 C30.4102899,24.2069082 30.4265352,24.0209157 30.4372424,23.8370396 C30.4650563,23.3597336 30.2889421,23.1361443 29.7836137,23.292134 C29.336744,23.4301966 28.9071041,23.5971417 28.4592498,23.9030209 M15.5074106,20.4042708 C15.9386504,20.6408075 16.3473682,20.8311572 16.7196572,21.0775287 C17.1782187,21.3811671 17.3827622,21.2184548 17.4497127,20.7362935 C17.4778958,20.5334945 17.4839263,20.3249689 17.4749421,20.1204269 C17.4611583,19.8058332 17.2824596,19.6713808 16.982044,19.7504338 C16.4725312,19.8845128 15.9736025,20.0493414 15.5074106,20.4042708 M7.00383944,19.6466067 C7.49292245,19.9133951 7.93782311,20.1469439 8.37324729,20.3971747 C8.63046512,20.5448234 8.78934942,20.5003794 8.87008381,20.2060781 C8.94626453,19.9285833 9.01826095,19.650466 8.97370932,19.3591525 C8.92940389,19.0695819 8.77519627,18.900147 8.47268842,18.9821878 C7.97092915,19.1181341 7.47113893,19.2677747 7.00383944,19.6466067 M36.4365706,18.810263 C36.9080545,19.0674655 37.3130802,19.2563213 37.6841384,19.4987091 C38.1305159,19.7903961 38.3405976,19.6726258 38.3974563,19.164072 C38.4133324,19.0212786 38.4518536,18.8797301 38.4557918,18.7369367 C38.4673605,18.3027053 38.3108145,18.068285 37.8299772,18.1996251 C37.3752309,18.3237446 36.9527291,18.5143433 36.4365706,18.810263 M31.9460893,23.8971697 C32.3221934,24.104575 32.6586687,24.2929328 32.9977286,24.4766844 C33.7355375,24.8766803 33.9089442,24.7709857 33.9456192,23.9028964 C33.9702334,23.317904 33.7773816,23.1538222 33.2081795,23.3119283 C32.7781704,23.4313171 32.3651451,23.6013744 31.9460893,23.8971697 M4.03820438,17.9335837 C4.53233331,18.2008701 4.96172704,18.3981914 5.35346113,18.6543979 C5.79036218,18.9398602 5.92869366,18.7117891 6.00524364,18.3303427 C6.03761124,18.1696223 6.0382266,18.0020548 6.04844147,17.8373506 C6.07810151,17.3610406 5.87318877,17.1943445 5.41191972,17.3256846 C4.95668114,17.4552817 4.52925654,17.6405272 4.03820438,17.9335837 M18.4175408,22.6560994 C18.9058854,22.9246307 19.3574318,23.1611674 19.7967943,23.4188677 C20.0984406,23.5957722 20.250433,23.4972983 20.309753,23.1812107 C20.3515971,22.9589908 20.4075943,22.73453 20.4094403,22.5106916 C20.4128863,22.0907769 20.2245881,21.9016721 19.7843642,22.0326387 C19.3170646,22.1714484 18.865272,22.3342852 18.4175408,22.6560994 M9.90215479,11.715783 C10.4268053,12.0027393 10.8795824,12.237035 11.3188218,12.4951089 C11.6255141,12.6752502 11.7677838,12.5663189 11.8271039,12.2537171 C11.865502,12.0514161 11.9182993,11.8487415 11.9266681,11.644573 C11.9450057,11.2010047 11.7696299,10.9796562 11.2903925,11.1088799 C10.8326925,11.2322524 10.4079755,11.4226021 9.90215479,11.715783 M21.9649311,21.5141256 C22.4413379,21.7729464 22.8456252,21.9677779 23.2240676,22.2048125 C23.6449695,22.4684886 23.8559127,22.3667778 23.9105561,21.8798859 C23.9288936,21.7169246 23.9743067,21.5545858 23.9719684,21.3926205 C23.9655687,20.949799 23.7845317,20.7407753 23.3131708,20.8971384 C22.8698701,21.0440401 22.4356766,21.2015237 21.9649311,21.5141256 M14.891934,23.3857527 C15.3411421,23.6316262 15.7615517,23.829819 16.1481167,24.0812948 C16.60274,24.377339 16.7674086,24.166448 16.8353436,23.7374453 C16.8641422,23.555312 16.8691881,23.3680746 16.8702957,23.1830781 C16.872511,22.8166954 16.7083347,22.6366785 16.3324767,22.7390118 C15.8416707,22.8727172 15.367233,23.0470073 14.891934,23.3857527 M18.9856352,19.5638189 C19.5157008,19.8496548 20.0001072,20.1022509 20.4757755,20.3705332 C20.7219169,20.5092184 20.8188966,20.3593289 20.8724323,20.1713445 C20.9337216,19.9554737 20.9783963,19.7291456 20.9903341,19.5051827 C21.0151944,19.0367157 20.8303422,18.7986852 20.3279675,18.9506911 C19.8802363,19.0862639 19.4486272,19.253209 18.9856352,19.5638189 M10.1575266,18.8164877 C10.687346,19.1021991 11.1727369,19.3554177 11.6491437,19.624696 C11.8874086,19.7592729 11.9933725,19.6391372 12.0477697,19.4362136 C12.1062283,19.2184754 12.1555796,18.9941391 12.1729326,18.7696783 C12.210223,18.2870192 12.0091255,18.0660442 11.5116737,18.2065967 C11.0581581,18.3345755 10.6306104,18.518576 10.1575266,18.8164877 M35.2186628,24.3175824 C35.7170991,24.5925874 36.1335705,24.7983742 36.5253045,25.0449947 C36.9494063,25.3117832 37.1057061,25.129401 37.1631801,24.714217 C37.1854559,24.5521271 37.2227463,24.3900373 37.2260692,24.2274495 C37.2352995,23.7828852 37.036048,23.5690063 36.5848708,23.7023382 C36.1404624,23.8336783 35.7071304,23.9968886 35.2186628,24.3175824 M26.1135219,18.1258008 C26.6426029,18.4101427 27.0909496,18.6329851 27.5207125,18.8878222 C27.8341736,19.0736901 27.9697975,18.9362499 28.0379787,18.6480487 C28.0848686,18.4497315 28.1189593,18.2446916 28.1269589,18.0416436 C28.1456656,17.5572414 27.9233999,17.3541935 27.4478546,17.5070708 C27.023999,17.6430171 26.6096199,17.8039865 26.1135219,18.1258008 M8.20537887,22.1387067 C8.69236969,22.4030052 9.11634828,22.6087921 9.51485126,22.8564086 C9.88418649,23.0858491 10.0754384,23.0050532 10.1396813,22.5804077 C10.1672491,22.397403 10.2125392,22.2146474 10.2163544,22.0310203 C10.2257077,21.5824722 10.0489782,21.3685933 9.57047926,21.5213461 C9.12225568,21.6641395 8.68707765,21.8272253 8.20537887,22.1387067 M53.3643323,19.2788545 C53.3941154,19.640631 53.4673425,19.8978335 53.9235657,19.7775733 C54.2770247,19.6844526 54.6539903,19.6850751 55.0117569,19.6046526 C55.3358021,19.5318242 55.8642678,19.6281818 55.9205111,19.279726 C55.9861078,18.873381 55.487056,18.6888824 55.1588264,18.4914366 C54.8870863,18.3279774 54.5812555,18.2783047 54.2700097,18.3353224 C53.7433901,18.43168 53.4584814,18.7709233 53.3643323,19.2788545 M5.42533443,27.2990642 C5.47739334,27.7913093 5.81263798,27.8432229 6.14185214,27.8759645 C8.52142443,28.1115052 9.5340503,29.4972363 9.0046001,31.8606106 C8.82897817,32.6442937 8.58295978,33.4154031 8.31848086,34.1741877 C8.16501168,34.6142702 8.30309697,34.7296752 8.70861503,34.7302976 C9.09764153,34.7309201 9.48679117,34.7543248 9.87557153,34.7744927 C10.9450561,34.829892 11.5769011,35.3408111 11.7372623,36.395391 C11.8856856,37.3712912 11.8167659,38.3398464 11.2612248,39.2065664 C11.0443741,39.5446892 10.8235853,39.6785192 10.4109291,39.399406 C9.49528306,38.780427 9.13554732,38.9436373 8.86245343,40.0112888 C8.60683556,41.0102203 8.35872498,41.1108106 7.43766373,40.609602 C7.15078585,40.4533633 6.85615459,40.3057147 6.55180071,40.1896873 C6.15366693,40.0378058 5.92783217,40.1966589 5.87540404,40.6292719 C5.83922125,40.9271835 5.89337237,41.3160995 5.53720571,41.4262758 C5.18214669,41.5358295 4.92000607,41.2397853 4.69515587,41.0109673 C3.89347322,40.1954139 3.28082719,39.2427938 2.83211136,38.1894589 C2.58916977,37.6191567 2.59384645,37.0354092 2.80134368,36.4356022 C3.31417935,34.9526421 3.80264703,33.4612165 4.28496117,31.9679235 C4.33283568,31.8196523 4.52937961,31.6151104 4.29332997,31.4755539 C4.12263089,31.3744656 3.92657924,31.4658434 3.77237164,31.5689236 C3.29178049,31.8904889 3.19516997,32.4545664 2.96490466,32.9308765 C2.81106626,33.2488315 2.6894724,33.5738826 2.35065871,33.7512851 C1.83179257,34.0228042 1.57814382,33.9484819 1.3647392,33.4076845 C-0.45572284,28.796092 -0.42470902,24.1676929 1.27723592,19.5359325 C2.04322806,17.4508 3.04945424,15.4901604 4.38267932,13.7107826 C4.69269445,13.2968435 5.02904672,12.9059357 5.42447294,12.5732905 C5.69879756,12.342356 5.96376882,12.1416734 6.3361808,12.4694634 C6.62244331,12.7214371 6.81209525,12.4527813 6.97614851,12.2316818 C7.44295577,11.6024945 7.89019476,10.957123 8.38333913,10.3498463 C8.74369018,9.90602893 9.14416228,9.47976507 9.74031686,10.0957562 C9.95409066,10.3164822 10.1410351,10.1324816 10.2953657,9.93765015 C10.7562656,9.35552112 11.2249189,8.78011468 11.7676607,8.27093847 C12.1781016,7.88575727 12.5703279,7.65880657 13.0939939,8.13474319 C13.4986503,8.50224637 13.9088451,8.39966419 14.2711653,7.98846395 C14.6381621,7.57178603 15.0147585,7.15846941 15.5076567,6.88122363 C15.8224716,6.70407013 16.1228873,6.63360713 16.3714901,6.9871671 C16.6908586,7.44094393 17.04641,7.36263786 17.4211602,7.06609563 C17.8554768,6.7222461 18.221366,6.29286989 18.7185718,6.02695295 C19.1648262,5.78817546 19.5324384,5.76514426 19.7612269,6.32137879 C19.963432,6.812628 20.3269829,6.78660896 20.7264705,6.59451635 C21.2151843,6.35947363 21.5912884,5.97254952 21.9975449,5.62621012 C22.6616345,5.06014065 22.8066118,5.08080649 23.2670193,5.80124722 C23.6065714,6.33283214 24.035596,6.44686768 24.568246,6.070152 C25.0361609,5.73924973 25.443525,5.32257181 25.8993789,4.9727466 C26.4519664,4.54872359 26.6059279,4.58955728 26.9453569,5.17019243 C27.3645358,5.88739634 27.6611362,5.95960225 28.3105804,5.4534139 C28.715483,5.13807325 29.086049,4.77766614 29.4767984,4.44315357 C29.7991207,4.16715269 30.1104896,4.08249748 30.420997,4.48162189 C30.6954447,4.83418594 31.0480423,4.84003711 31.4067934,4.62117849 C31.8270799,4.3648475 32.2549968,4.11548811 32.6471001,3.81919488 C33.0277578,3.53174065 33.3820785,3.48567825 33.7669206,3.7728835 C34.3101547,4.17860604 34.7838539,4.09569373 35.210417,3.58054189 C35.3278265,3.43874441 35.4789573,3.32570481 35.6113814,3.19623213 C36.0465595,2.77096419 36.5221047,2.66253083 37.0556163,3.00513545 C37.5277156,3.30827579 37.9301568,3.24876816 38.2981382,2.8079386 C38.4673605,2.60513958 38.6850726,2.43782105 38.9000771,2.28120891 C39.1078205,2.12982548 39.3326706,2.08961425 39.5893962,2.22170127 C40.3082522,2.59206782 40.5620241,2.56194052 41.0337542,1.91993036 C41.395582,1.42756072 41.7641788,1.18467496 42.3842091,1.41249707 C42.6880707,1.52429175 42.9957475,1.36444279 43.2161671,1.12715922 C43.4111111,0.917513082 43.5650726,0.669398617 43.7482018,0.447427681 C43.8834566,0.283594952 43.9320695,-0.0740733083 44.1900257,0.0135697321 C44.5015177,0.119264251 44.4053995,0.476310046 44.3684783,0.726167405 C44.2257162,1.69148578 43.7747851,2.52670902 43.2134596,3.30055723 C41.750518,5.31746759 39.7811404,6.71950726 37.6482018,7.90704553 C33.8159027,10.0408548 29.6775268,11.3318468 25.450663,12.3653872 C22.507673,13.0849565 19.5624677,13.7933215 16.7549785,14.9723943 C15.9216666,15.3224684 15.1145689,15.7237092 14.3720833,16.2469531 C14.0173935,16.4968105 13.6871947,16.7772931 13.4304692,17.1312266 C12.9172643,17.83872 13.0690105,18.483718 13.8580169,18.8492293 C14.7944619,19.2828383 15.7828429,19.1765213 16.7601474,19.0505345 C18.4356322,18.8344147 19.9855848,18.1323989 21.6154103,17.7385032 C28.6877921,16.0292149 35.6748859,16.4314517 42.5691844,18.678674 C43.8064143,19.0819067 44.9595869,19.26155 46.1893095,18.6512856 C46.9365949,18.2805455 47.7971053,18.2908784 48.6012495,18.5168332 C49.2728463,18.705689 49.8437714,18.5580403 50.4222037,18.2402098 C51.0867856,17.8751965 51.7256457,17.4585186 52.437979,17.1860034 C53.2299391,16.8828631 54.0278065,16.7937261 54.832566,17.1262469 C55.6860614,17.4789354 56.548664,17.4630003 57.4207432,17.2156328 C58.5897918,16.884108 59.1732702,17.0781926 59.8136071,18.1028941 C60.031073,18.4511009 60.2303245,18.4967898 60.6082747,18.4106407 C63.7806685,17.6880835 66.9173717,16.8070469 70.1168416,16.2046255 C70.638661,16.1064006 71.1678655,16.0343192 71.6970694,15.9951039 C72.4214638,15.9415719 72.9591595,16.2895297 73.3294795,16.9007901 C73.8130241,17.69879 73.7159211,18.0961715 72.9045163,18.5655099 C72.6065618,18.7376837 72.4809066,18.9792 72.4042335,19.2977775 C72.2559336,19.9131462 72.0547127,19.9878419 71.5547998,19.6523334 C70.7390868,19.1048134 70.6565067,19.1359366 70.3840276,20.0931629 C70.2202209,20.6689429 70.0137083,20.7392814 69.5030875,20.3928175 C68.7398028,19.8750513 68.6359315,19.9121502 68.3987738,20.7878337 C68.2242598,21.4322092 68.0074092,21.5065315 67.4524832,21.1121378 C66.7742408,20.6302256 66.5930804,20.702058 66.3898906,21.533173 C66.2270686,22.2002062 66.0067719,22.284488 65.4589836,21.8895963 C64.7393894,21.3708342 64.6266567,21.417519 64.3997142,22.3283095 C64.2519063,22.9213939 63.9690898,23.027213 63.47693,22.673404 C62.733706,22.1393292 62.603251,22.1835242 62.3809853,23.0450154 C62.2051172,23.7268633 62.0046351,23.8057919 61.456355,23.4095308 C60.7211306,22.8780704 60.5676614,22.9420597 60.351303,23.8707772 C60.2204789,24.4322404 59.9870137,24.5422922 59.5358365,24.2486133 C59.2988023,24.0943665 59.0919204,23.7766605 58.802335,23.8553401 C58.3740489,23.971492 57.9821917,24.2097715 57.5307684,24.2882021 C57.3743455,24.315466 57.5711356,25.0357823 57.8228151,25.1676203 C59.0485995,25.8088835 60.1674354,26.685065 61.604163,26.8664512 C62.046356,26.9223485 62.4555661,26.948492 62.857269,26.7418337 C63.2293117,26.550488 63.5272659,26.5736437 63.6766738,27.0265491 C63.8486036,27.5469297 64.1628031,27.6425402 64.6142265,27.3594433 C65.0368513,27.0943978 65.3492046,27.1720814 65.5089505,27.6722941 C65.6549122,28.1295567 65.9378519,28.1761171 66.3162944,27.9611177 C66.7646409,27.7064052 67.130038,27.6902211 67.3108291,28.2887832 C67.4386998,28.7124327 67.7197927,28.7743057 68.0705442,28.556941 C68.5471977,28.2617682 68.899672,28.283928 69.0935085,28.8902087 C69.2371322,29.3396282 69.5523157,29.2969271 69.8777151,29.1098142 C70.3381223,28.8448932 70.6645058,28.856969 70.8547735,29.449929 C71.0098424,29.9327126 71.37327,29.917649 71.7455595,29.6895779 C72.0885573,29.4795583 72.3728504,29.4300101 72.6200999,29.8444472 C72.7875989,30.1250543 73.1369964,30.1606592 73.4001216,30.3142836 C74.0802108,30.7110426 74.1839595,31.1531171 73.7015223,31.7866618 C73.176256,32.4766017 72.4292169,32.8099938 71.6176888,33.0080621 C70.3976884,33.3059738 69.1472903,33.3961067 67.9023072,33.4671921 C62.6709399,33.7658508 57.4591412,33.5924321 52.2846329,32.6981992 C52.0475987,32.657241 51.8537623,32.6781558 51.6380194,32.7751358 C48.577989,34.151032 45.342583,34.8310125 42.0375189,35.2323777 C38.3876106,35.6755727 34.7591167,35.4417749 31.1378839,34.900853 C30.934448,34.8704767 30.5940344,34.6771392 30.5145308,35.0187479 C30.4484417,35.3030898 30.7216588,35.5158482 30.9809688,35.5977646 C31.4876509,35.757987 32.011563,35.8621876 32.5231679,36.0082178 C33.6561569,36.3316506 34.7145651,36.8031054 35.6238115,37.5847966 C36.2571335,38.1292043 36.5180434,38.8076909 36.3969418,39.6274771 C36.2909779,40.3451789 35.7639891,40.5617967 35.1856798,40.1467372 C34.5070679,39.6594717 34.2337278,39.7697725 34.0587212,40.6016344 C33.8380554,41.65111 33.282145,41.8395924 32.4814469,41.1364561 C31.8070175,40.5443676 31.4997118,40.6241676 31.2098803,41.4674829 C31.1627442,41.6040517 31.1249615,41.7446043 31.0692105,41.8775627 C30.7907014,42.5406122 30.433181,42.6079629 29.9091459,42.0980397 C29.8356727,42.0264563 29.7715528,41.9449134 29.7025102,41.8684747 C29.2941615,41.4183082 29.0472817,41.4234124 28.6665008,41.9061961 C28.4756182,42.1482104 28.3287948,42.4303115 28.1174824,42.650415 C27.6119079,43.1765222 27.1131023,43.1085491 26.8055486,42.4482384 C26.5715912,41.9456604 26.4186142,41.404863 26.2308083,40.8806231 C25.9158703,40.0020764 25.4581703,39.2772784 24.5848605,38.8144136 C23.6529691,38.32055 23.2420359,37.1933908 23.4583943,36.147899 C23.9047718,33.991432 25.2693799,32.7466269 27.309277,32.1635019 C27.7806378,32.0288005 28.254337,31.8969625 28.713637,31.7271541 C28.9498096,31.6398846 29.1767521,31.4207769 29.1162012,31.1645704 C29.0453126,30.8646669 28.7302515,31.0113196 28.5385073,31.0328569 C25.7457866,31.3467036 23.58848,32.6871193 22.2162415,35.1863154 C21.7107901,36.1069408 20.9642431,36.519137 19.9940767,36.6036677 C17.6564715,36.8070892 15.3858168,36.3533123 13.1230385,35.8452566 C12.9588622,35.8085311 12.8008394,35.7593564 12.7533341,35.5666413 C12.439873,34.2938254 11.5169657,33.8923356 10.3502553,33.893705 C9.78253009,33.8943275 9.65662877,33.7126923 9.80640581,33.1547148 C9.99285796,32.4594216 10.1114981,31.7438362 10.1230667,31.0116931 C10.1628186,28.4757716 8.73162922,27.0713666 6.2155715,27.2081843 C5.95355394,27.2223765 5.69325938,27.267443 5.42533443,27.2990642" id="Fill-1" fill="#000000" fill-rule="nonzero" mask="url(#mask-4)"></path>
                        </g>
                    </g>
                    <path d="M78.6380476,58.4941769 C78.6396029,57.9439834 78.6212946,57.3957496 78.4943302,56.857437 C77.9351378,54.4870242 76.6072209,52.8497945 74.2203928,52.2873526 C72.0614054,51.7785584 69.7920882,52.712736 68.5031818,54.5763143 C66.7808505,57.0662705 66.9974431,60.8045731 68.9946438,63.0637713 C71.474571,65.868754 75.6586403,65.5117156 77.6214976,62.3202997 C78.3387666,61.1542619 78.6618605,59.870028 78.6380476,58.4941769 M72.9000145,69.9999884 C66.6658528,69.9952048 61.994629,65.0727372 62.0000046,58.5135292 C62.0055185,51.8567026 66.6136792,46.9958436 72.9152123,47.0000027 C79.1590667,47.0041724 84.0237877,52.0869705 83.9999125,58.5816297 C83.9758024,65.0250908 79.135134,70.0047588 72.9000145,69.9999884" id="Fill-4" fill="#000000" fill-rule="nonzero"></path>
                    <path d="M130.010421,59.0175943 C130.010421,55.5442929 130.0189,52.0708721 130,48.5978093 C129.997577,48.1355775 130.12402,47.9983636 130.619693,48 C135.54013,48.0179315 140.460692,48.0180508 145.381129,48 C145.880044,47.9982443 146.017959,48.1360547 145.996387,48.599957 C145.95773,49.4319506 146.002372,50.2671656 145.978929,51.1002329 C145.943889,52.3393341 145.388486,52.9440298 144.099489,53.0246877 C141.653673,53.17789 139.20212,53.0658519 136.753062,53.0935333 C135.75224,53.1046298 135.889033,52.999512 135.878559,53.9066748 C135.8717,54.5020638 135.907115,55.0993619 135.867461,55.6923646 C135.837658,56.1380114 135.982432,56.2595949 136.452791,56.2544643 C138.819424,56.2284533 141.186681,56.259237 143.552939,56.223442 C144.124304,56.2147319 144.241021,56.3857124 144.228301,56.8925686 C144.19588,58.1817826 144.202239,59.4731444 144.243764,60.7621199 C144.259725,61.2543002 144.076918,61.3544067 143.604565,61.3505885 C141.217107,61.330782 138.8294,61.3526169 136.441942,61.3318559 C135.984053,61.3277991 135.82893,61.4363771 135.84539,61.8915693 C135.87594,62.7434886 135.855989,63.5985102 135.818455,64.4506682 C135.79975,64.8748381 135.962106,64.985922 136.388322,64.9838935 C139.357244,64.9692173 142.326291,64.9889044 145.294963,64.9648027 C145.83216,64.960388 146.034045,65.0794656 145.995389,65.6204464 C145.946258,66.3117656 145.995638,67.009051 145.987159,67.7035924 C145.971322,69.0024706 145.124003,69.8700206 143.754326,69.9377924 C142.801513,69.9850418 141.845083,69.9704849 140.890399,69.9726326 C137.485535,69.9807464 134.080795,69.9745418 130.676056,70 C130.168039,70.0035358 130.007179,69.8837422 130.010546,69.3779599 C130.03374,65.9247031 130.022766,62.4709699 130.022766,59.0175943 L130.010421,59.0175943 Z" id="Fill-6" fill="#000000" fill-rule="nonzero"></path>
                    <path d="M29.6775709,53.2280021 C28.7694812,55.6259583 27.9102838,57.8949486 27.0507161,60.164058 C26.8918158,60.5838224 27.2146785,60.5182082 27.4471643,60.5189227 C28.9256652,60.5230906 30.40466,60.5040374 31.8826672,60.5303546 C32.4127051,60.5398811 32.5692595,60.4679555 32.3377615,59.923274 C31.6625279,58.334957 31.0422366,56.724967 30.4051539,55.1216456 C30.1722977,54.5358807 29.9527758,53.9453526 29.6775709,53.2280021 M38.3204122,69.9692782 C37.6012249,69.9692782 36.8809264,69.9460571 36.1632207,69.9779711 C35.7303501,69.9972622 35.5183597,69.8792519 35.3835352,69.4535339 C34.9652336,68.132675 34.4776679,66.8324177 34.0452912,65.5156075 C33.9265173,65.1537174 33.7484798,65.0376119 33.3519082,65.0409463 C30.886176,65.0619049 28.4200735,65.064763 25.9544648,65.0457098 C25.5446823,65.0426132 25.3899799,65.1919424 25.2710824,65.5379952 C24.9680978,66.4186071 24.6328886,67.289097 24.2975559,68.1588728 C23.6745484,69.7744601 22.8560947,70.0552553 21.5952636,69.9919037 C20.5500035,69.9395075 19.4995579,69.9702309 18.451952,69.9865453 C18.0530346,69.9928564 17.8979618,69.9460571 18.0685913,69.5008089 C20.758537,62.4811575 23.4351485,55.4566236 26.1032408,48.4291125 C26.2211505,48.1187845 26.3677042,47.9969636 26.7164946,48.0000573 C28.462916,48.0160167 30.2099547,47.9885087 31.9562527,48.0143495 C33.4685832,48.036737 33.9820768,48.4282789 34.4455668,49.8267791 C36.6022645,56.3328296 38.7490849,62.8420954 40.9207219,69.3435016 C41.1054265,69.8963998 40.9793681,70.0135766 40.4157475,69.9794001 C39.7198952,69.9371258 39.0191042,69.9692782 38.3204122,69.9692782" id="Fill-8" fill="#000000" fill-rule="nonzero"></path>
                    <path d="M97.1854046,69.9975234 C94.0266399,70.0437049 90.9715739,69.0479121 88.3081479,66.8984482 C87.9955579,66.6461139 87.8993286,66.4810921 88.1195479,66.1111492 C88.5602366,65.3706469 88.9539926,64.6019433 89.5093346,63.9348386 C90.2662232,63.0256206 91.1002946,62.8470528 92.1361612,63.4448239 C93.7208966,64.3594605 95.4153059,64.8807554 97.2415486,65.020408 C98.1393579,65.0891256 99.0267099,65.0681898 99.8792059,64.7695508 C101.099439,64.3418501 101.336465,63.3076346 100.443885,62.3655355 C99.8891646,61.7800794 99.1648919,61.4630907 98.4149752,61.2218395 C96.7648832,60.6913083 95.1028406,60.197476 93.4498859,59.6756885 C92.3924826,59.3418283 91.4514759,58.7794013 90.5770706,58.1199319 C88.0280493,56.1970645 87.6736313,52.9712679 89.6993039,50.3493999 C91.2021259,48.4043655 93.2818266,47.4695322 95.6553192,47.1713855 C98.6119152,46.8000877 101.536767,46.9809953 104.295426,48.2223495 C106.371268,49.1564438 105.943651,48.9085424 105.336521,50.6985307 C105.238425,50.9876874 105.099869,51.2655143 104.959447,51.5380457 C104.347836,52.7249675 103.632277,53.0025481 102.366107,52.539257 C101.510998,52.2263322 100.643439,51.9561407 99.7384092,51.8370544 C98.6050686,51.6879196 97.4694866,51.6349649 96.3429926,51.9049102 C95.9591952,51.9969034 95.5884692,52.1251028 95.2562099,52.3398767 C94.3164486,52.9473767 94.2833346,53.8979732 95.1983232,54.5402016 C96.1221506,55.1887106 97.1986006,55.5081622 98.2612319,55.8444855 C99.9134399,56.3676276 101.607974,56.7735307 103.157106,57.578933 C104.758273,58.4114285 106.102995,59.4957661 106.697303,61.2664198 C107.657231,64.1259677 106.280889,67.1512757 103.322177,68.7240274 C101.64781,69.6141568 99.7045486,70.0365621 97.1854046,69.9975234" id="Fill-10" fill="#000000" fill-rule="nonzero"></path>
                    <path d="M53.2455886,47.0015067 C55.3963977,46.9685503 57.4405071,47.4805863 59.4644635,48.1112411 C59.9213064,48.253608 60.0777087,48.4961768 59.952216,48.9651998 C59.7547658,49.7033265 59.6155493,50.4572044 59.3322943,51.1714619 C58.883117,52.3043385 58.1745468,52.6686765 56.9549801,52.3515922 C55.3612845,51.9373349 53.7528759,51.7959374 52.132969,52.1167777 C49.5170332,52.6348719 47.7540769,54.4446877 47.2691681,57.040732 C46.9184066,58.9181569 47.198818,60.6928353 48.2339165,62.3176348 C49.4037806,64.1541065 51.2176758,64.8819343 53.3328771,65.021151 C54.5313016,65.1000282 55.7114277,64.9543897 56.8741208,64.653905 C58.2083,64.3091955 58.8894225,64.659115 59.3662948,65.9047945 C59.648437,66.6418308 59.8023665,67.4113387 59.9763254,68.1761213 C60.04309,68.469579 59.9783036,68.6807663 59.657339,68.7905402 C54.5771714,70.5305658 49.6505623,70.6892901 45.1527304,67.2785437 C42.6856549,65.407783 41.3873308,62.8523283 41.0776172,59.8284565 C40.6792551,55.9393578 41.7962021,52.5622951 44.8478387,49.9540133 C47.2352912,47.9132603 50.0917032,47.0154405 53.2455886,47.0015067" id="Fill-12" fill="#000000" fill-rule="nonzero"></path>
                    <path d="M118.246172,48.0100372 C120.974094,48.0101564 123.702135,48.0200585 126.429816,48 C126.871668,47.996914 127.018712,48.1053592 126.998134,48.5594213 C126.960565,49.3909537 126.988323,50.22523 126.987366,51.0584327 C126.98593,52.2842571 126.467505,52.8811232 125.234556,53.0190359 C123.805868,53.1789002 122.36964,53.087873 120.937602,53.0766586 C120.400392,53.0724831 120.286251,53.2293648 120.288164,53.7422425 C120.307786,58.9392607 120.292472,64.1365174 120.312213,69.3336547 C120.314128,69.8472486 120.199866,70.0137932 119.661461,69.9991196 C118.228824,69.9598692 116.794152,69.9665501 115.361155,69.9964949 C114.882932,70.006516 114.764842,69.8544066 114.766277,69.392948 C114.781472,64.1958103 114.766517,58.9985535 114.788891,53.8014161 C114.791523,53.2256664 114.634428,53.066518 114.059769,53.0783289 C112.268435,53.1151931 110.475424,53.0679496 108.684089,53.1057682 C108.113379,53.1176984 107.97483,52.9280088 108.003545,52.398906 C108.045301,51.6275016 108.013595,50.8521602 108.014432,50.0786084 C108.015988,48.7271593 108.621395,48.062172 110.003064,48.0324659 C111.933666,47.9910682 113.865704,48.0138548 115.797025,48.0102758 C116.613487,48.0087249 117.429829,48.0100372 118.246172,48.0100372" id="Fill-14" fill="#000000" fill-rule="nonzero"></path>
                    <g id="Group-18" stroke-width="1" fill="none" fill-rule="evenodd" transform="translate(0.000000, 48.000000)">
                        <g id="Fill-16-Clipped">
                            <mask id="mask-6" fill="white">
                                <use xlink:href="#path-5"></use>
                            </mask>
                            <g id="path-4"></g>
                            <path d="M0.00606686198,10.9629774 C0.00606686198,7.56896719 0.00304551637,4.17483764 0.00824223083,0.780827428 C0.00957162285,-0.0936874335 -0.113578424,0.00702078651 0.824126396,0.00296382027 C1.72944239,-0.000854500882 2.63524181,-0.0049114671 3.54007439,0.0179984598 C5.01944605,0.0555850585 5.70045735,0.746701185 5.703237,2.20541919 C5.71218018,6.90935217 5.72450726,11.6134045 5.70758773,16.3173375 C5.70553321,16.8625222 5.84886585,17.0253974 6.40660627,17.0145391 C8.15644878,16.9804129 9.90749984,16.9991465 11.6579466,17.0047547 C11.9586309,17.0057092 12.2616115,17.0244429 12.5592744,17.0654899 C13.5184912,17.1979378 13.9855913,17.7072065 13.9977975,18.6584457 C14.0096412,19.5712631 13.9685509,20.485035 13.9959847,21.3970172 C14.0100038,21.8636877 13.858453,22 13.3827724,21.9973289 C10.2037126,21.97776 7.02453186,21.9871865 3.84535115,21.9871865 C2.79899874,21.9871865 1.7516795,21.9605775 0.706898192,21.9981641 C0.174657947,22.0174944 -0.00480998221,21.8902966 -0.000161649809,21.3235145 C0.0295125039,17.870201 0.0147683373,14.4165295 0.0147683373,10.9629774 L0.00606686198,10.9629774 Z" id="Fill-16" fill="#000000" fill-rule="nonzero" mask="url(#mask-6)"></path>
                        </g>
                    </g>
                </g>
            </g>
        </g>
    </g>
</svg>